Coordinates
version=1
nRows=60
nColumns=12
inDegrees=yes

Units are S.I. units (second, meters, Newtons, ...)
Angles are in degrees

endheader
time	SC_y	SC_z	SC_x	AC_y	AC_z	AC_x	GH_y	GH_z	GH_yy	EL_x	PS_y
       0.0              -49.51          6.401          67.95          52.43         -17.99         -14.05         -100.3           77.8          32.81          105.2          10.95
   0.03704              -49.51          6.406          67.94          52.43         -17.98         -14.04         -100.3          77.79          32.78          105.2          10.96
   0.07407              -49.51          6.411          67.93          52.42         -17.98         -14.04         -100.3          77.78          32.76          105.2          10.97
    0.1111              -49.51          6.417          67.92          52.42         -17.98         -14.03         -100.2          77.77          32.73          105.2          10.98
    0.1481              -49.52          6.423          67.91          52.42         -17.97         -14.03         -100.2          77.76          32.71          105.2          10.99
    0.1852              -49.52          6.429           67.9          52.42         -17.97         -14.02         -100.2          77.75          32.68          105.2          11.01
    0.2222              -49.52          6.435          67.89          52.42         -17.96         -14.02         -100.2          77.73          32.65          105.2          11.02
    0.2593              -49.52          6.442          67.88          52.42         -17.96         -14.01         -100.2          77.72          32.61          105.2          11.03
    0.2963              -49.52           6.45          67.87          52.41         -17.95         -14.01         -100.2          77.71          32.58          105.2          11.05
    0.3333              -49.52          6.458          67.85          52.41         -17.94          -14.0         -100.2          77.69          32.54          105.2          11.07
    0.3704              -49.52          6.467          67.84          52.41         -17.94         -13.99         -100.1          77.67           32.5          105.2          11.09
    0.4074              -49.52          6.476          67.82          52.41         -17.93         -13.98         -100.1          77.65          32.46          105.2          11.11
    0.4444              -49.52          6.487           67.8           52.4         -17.92         -13.98         -100.1          77.63          32.41          105.2          11.13
    0.4815              -49.52          6.498          67.79           52.4         -17.91         -13.97         -100.1          77.61          32.36          105.2          11.15
    0.5185              -49.52           6.51          67.77           52.4          -17.9         -13.96         -100.0          77.59           32.3          105.2          11.17
    0.5556              -49.52          6.522          67.74          52.39         -17.89         -13.95         -100.0          77.56          32.24          105.2           11.2
    0.5926              -49.52          6.536          67.72          52.39         -17.88         -13.94         -99.99          77.53          32.18          105.3          11.23
    0.6296              -49.53          6.552          67.69          52.39         -17.87         -13.92         -99.96           77.5          32.11          105.3          11.26
    0.6667              -49.53          6.568          67.67          52.38         -17.86         -13.91         -99.92          77.47          32.03          105.3           11.3
    0.7037              -49.53          6.587          67.63          52.38         -17.84         -13.89         -99.88          77.43          31.94          105.3          11.34
    0.7407              -49.53          6.607           67.6          52.37         -17.83         -13.88         -99.84          77.39          31.85          105.3          11.38
    0.7778              -49.53          6.629          67.56          52.37         -17.81         -13.86         -99.79          77.35          31.75          105.3          11.42
    0.8148              -49.53          6.653          67.52          52.36         -17.79         -13.84         -99.73           77.3          31.63          105.3          11.48
    0.8518              -49.54           6.68          67.48          52.35         -17.77         -13.82         -99.68          77.25          31.51          105.3          11.53
    0.8889              -49.54           6.71          67.42          52.34         -17.75         -13.79         -99.61          77.19          31.37          105.3          11.59
    0.9259              -49.54          6.744          67.37          52.33         -17.72         -13.77         -99.54          77.12          31.21          105.4          11.66
     0.963              -49.54          6.781           67.3          52.32         -17.69         -13.73         -99.46          77.05          31.04          105.4          11.74
       1.0              -49.55          6.824          67.23          52.31         -17.66          -13.7         -99.37          76.96          30.84          105.4          11.83
     1.037              -49.55          6.871          67.15           52.3         -17.62         -13.66         -99.26          76.87          30.62          105.4          11.93
     1.074              -49.56          6.925          67.06          52.28         -17.58         -13.62         -99.14          76.76          30.37          105.4          12.05
     1.111              -49.56          6.987          66.95          52.27         -17.53         -13.57         -99.01          76.64          30.08          105.5          12.17
     1.148              -49.57          7.058          66.83          52.25         -17.48         -13.51         -98.86           76.5          29.75          105.5          12.32
     1.185              -49.57           7.14           66.7          52.23         -17.42         -13.44         -98.68          76.34          29.37          105.5          12.49
     1.222              -49.58          7.235          66.53           52.2         -17.34         -13.36         -98.47          76.15          28.93          105.6          12.69
     1.259              -49.59          7.347          66.35          52.17         -17.26         -13.27         -98.23          75.93          28.41          105.6          12.93
     1.296               -49.6          7.478          66.12          52.13         -17.15         -13.16         -97.95          75.67           27.8          105.7           13.2
     1.333              -49.61          7.634          65.86          52.09         -17.03         -13.04         -97.61          75.36          27.08          105.8          13.53
      1.37              -49.63          7.821          65.54          52.04         -16.89         -12.88          -97.2          74.99          26.21          105.9          13.92
     1.407              -49.64          8.047          65.16          51.98         -16.71          -12.7         -96.71          74.54          25.16          106.0          14.39
     1.444              -49.67          8.324          64.69           51.9          -16.5         -12.47         -96.11          73.99          23.88          106.1          14.97
     1.481              -49.69          8.665          64.11          51.81         -16.24         -12.19         -95.37          73.31          22.29          106.3          15.69
     1.519              -49.73           9.09          63.39           51.7         -15.91         -11.84         -94.45          72.47          20.32          106.5          16.58
     1.556              -49.77          9.626          62.48          51.55         -15.49          -11.4         -93.28          71.41          17.83          106.7           17.7
     1.593              -49.82          10.31          61.32          51.37         -14.96         -10.85         -91.81          70.06          14.66          107.0          19.12
      1.63              -49.89          11.18          59.84          51.13         -14.29         -10.13         -89.91          68.33          10.61          107.4          20.95
     1.667              -49.98           12.3          57.94          50.82         -13.42         -9.215         -87.48          66.11          5.417          108.0          23.29
     1.704               -50.1          13.73          55.52          50.44         -12.32         -8.044         -84.38          63.27         -1.221          108.6          26.28
     1.741              -50.24          15.53          52.47          49.95         -10.93         -6.571         -80.48          59.71         -9.568          109.5          30.04
     1.778              -50.41          17.72          48.75          49.35         -9.231         -4.777         -75.73          55.37         -19.74          110.5          34.62
     1.815              -50.61          20.25          44.45          48.66         -7.266         -2.697         -70.22          50.33         -31.53          111.7          39.94
     1.852              -50.83           23.0          39.78          47.91         -5.139        -0.4448         -64.26          44.88          -44.3          113.0          45.69
     1.889              -51.05          25.75          35.12          47.17         -3.012          1.807         -58.29          39.43         -57.06          114.3          51.44
     1.926              -51.25          28.29          30.81          46.48         -1.047          3.887         -52.78           34.4         -68.85          115.5          56.75
     1.963              -51.43          30.48          27.09          45.88          0.648          5.682         -48.03          30.05         -79.02          116.5          61.34
       2.0              -51.57          32.28          24.04          45.39          2.039          7.154         -44.13          26.49         -87.37          117.3           65.1
     2.037              -51.68          33.71          21.62          45.01          3.145          8.325         -41.03          23.66         -94.01          118.0          68.09
     2.074              -51.77          34.83          19.72           44.7          4.011          9.242          -38.6          21.44         -99.21          118.5          70.43
     2.111              -51.84           35.7          18.24          44.46          4.686          9.956         -36.71          19.71         -103.3          118.9          72.26
     2.148              -51.89          36.38          17.08          44.28          5.213          10.51         -35.23          18.36         -106.4          119.3          73.68
     2.185              -51.94          36.92          16.18          44.13          5.628          10.95         -34.07           17.3         -108.9          119.5           74.8
